#N canvas 399 59 967 772 10;
#X obj 20 -329 audce_gui_grid 500 500 0.2;
#X obj 20 -402 dumpOSC 57110;
#X obj 35 -354 print osc_rcv;
#X obj 20 -379 OSCroute /pd;
#X msg 20 181 send /mms/ENVIRONMENT/MOVEMENT TRANSPORT :AGENT \$1 :POS
(\$2 \$3 \$4);
#X obj 213 -352 sendOSC;
#X obj 139 -402 loadbang;
#X msg 139 -378 connect localhost 57111;
#X msg 195 267 send /mms/ENVIRONMENT/MOVEMENT STOP :AGENT Guitarist
;
#X obj 563 79 s osc;
#X obj 304 -378 r osc;
#X obj 185 289 s osc;
#X msg 185 229 send /mms/ENVIRONMENT/MOVEMENT WALK :AGENT Guitarist
:ACC (0 1 0);
#X floatatom 655 -392 5 0 0 0 - - x;
#X floatatom 655 -366 5 0 0 0 - - y;
#X obj 601 -397 vradio 15 1 0 3 cmd empty empty 0 -8 0 10 -262144 -1
-1 0;
#X obj 582 -136 select 0 1 2;
#X obj 616 105 print msg;
#X obj 563 -390 bng 15 250 50 0 empty empty empty 17 7 0 10 -262144
-1 -1;
#X obj 628 -397 vradio 15 1 0 4 agent empty empty 0 -8 0 10 -262144
-1 -1 0;
#X obj 714 -222 select 0 1 2 3;
#X obj 582 -163 r cmd;
#X obj 714 -247 r agent;
#X obj 654 -22 r x;
#X obj 682 -19 r y;
#X msg 563 48 send /mms/ENVIRONMENT/MOVEMENT \$2 :AGENT \$3 :ACC (\$4
\$5 0);
#X obj 563 16 pack s s s f f;
#X symbolatom 578 -80 10 0 0 0 - - -;
#X msg 578 -102 symbol WALK;
#X msg 661 -102 symbol TURN;
#X msg 740 -102 symbol STOP;
#X msg 695 -197 symbol Listener_1;
#X msg 779 -193 symbol Drummer;
#X msg 795 -167 symbol Bassist;
#X msg 716 -171 symbol Guitarist;
#X symbolatom 700 -140 10 0 0 0 - - -;
#X msg 429 188 send /mms/Listener_1/MovementReasoning WALK :POS (-14
20 0) :TIME 2;
#X obj 20 221 s osc;
#X connect 0 0 4 0;
#X connect 1 0 3 0;
#X connect 3 0 2 0;
#X connect 3 0 0 0;
#X connect 4 0 37 0;
#X connect 6 0 7 0;
#X connect 7 0 5 0;
#X connect 8 0 11 0;
#X connect 10 0 5 0;
#X connect 12 0 11 0;
#X connect 16 0 28 0;
#X connect 16 1 29 0;
#X connect 16 2 30 0;
#X connect 16 3 30 0;
#X connect 18 0 26 0;
#X connect 20 0 31 0;
#X connect 20 1 34 0;
#X connect 20 2 32 0;
#X connect 20 3 33 0;
#X connect 21 0 16 0;
#X connect 22 0 20 0;
#X connect 23 0 26 3;
#X connect 24 0 26 4;
#X connect 25 0 9 0;
#X connect 25 0 17 0;
#X connect 26 0 25 0;
#X connect 27 0 26 1;
#X connect 28 0 27 0;
#X connect 29 0 27 0;
#X connect 30 0 27 0;
#X connect 31 0 35 0;
#X connect 32 0 35 0;
#X connect 33 0 35 0;
#X connect 34 0 35 0;
#X connect 35 0 26 2;
#X connect 36 0 11 0;
