#N canvas 399 59 546 655 10;
#X obj 20 -329 audce_gui_grid 500 500 0.2;
#X obj 24 -405 dumpOSC 57110;
#X obj 39 -357 print osc_rcv;
#X obj 24 -382 OSCroute /pd;
#X obj 20 222 print osc_pos;
#X msg 20 181 send /mms/ENVIRONMENT/MOVEMENT TRANSPORT :AGENT \$1 :POS
(\$2 \$3 \$4);
#X obj 241 224 sendOSC;
#X obj 392 178 loadbang;
#X msg 392 202 connect localhost 57111;
#X connect 0 0 5 0;
#X connect 1 0 3 0;
#X connect 3 0 2 0;
#X connect 3 0 0 0;
#X connect 5 0 4 0;
#X connect 5 0 6 0;
#X connect 7 0 8 0;
#X connect 8 0 6 0;
